<?xml version="1.0" encoding="UTF-8" standalone="no"?>
<svg xmlns="http://www.w3.org/2000/svg" xmlns:xlink="http://www.w3.org/1999/xlink" contentStyleType="text/css" height="202px" preserveAspectRatio="none" style="width:837px;height:202px;" version="1.1" viewBox="0 0 837 202" width="837px" zoomAndPan="magnify">
  <defs />
  <g> <!--MD5=[3c0f75a20f8e7ecba18fd0044d8a029a]
class MapComponent-->
    <g id="elem_MapComponent">
      <rect codeLine="1" fill="#F1F1F1" height="64.2969" id="MapComponent" rx="2.5" ry="2.5" style="stroke:#181818;stroke-width:0.5;" width="186" x="7" y="131" />
      <ellipse cx="41.35" cy="147" fill="#ADD1B2" rx="11" ry="11" style="stroke:#181818;stroke-width:1.0;" />
      <path d="M44.3188,152.6406 Q43.7406,152.9375 43.1,153.0781 Q42.4594,153.2344 41.7563,153.2344 Q39.2563,153.2344 37.9281,151.5938 Q36.6156,149.9375 36.6156,146.8125 Q36.6156,143.6875 37.9281,142.0313 Q39.2563,140.375 41.7563,140.375 Q42.4594,140.375 43.1,140.5313 Q43.7563,140.6875 44.3188,140.9844 L44.3188,143.7031 Q43.6938,143.125 43.1,142.8594 Q42.5063,142.5781 41.8813,142.5781 Q40.5375,142.5781 39.85,143.6563 Q39.1625,144.7188 39.1625,146.8125 Q39.1625,148.9063 39.85,149.9844 Q40.5375,151.0469 41.8813,151.0469 Q42.5063,151.0469 43.1,150.7813 Q43.6938,150.5 44.3188,149.9219 L44.3188,152.6406 Z " fill="#000000" />
      <text fill="#000000" font-family="sans-serif" font-size="14" lengthAdjust="spacing" textLength="111" x="59.65" y="151.8467">MapComponent</text>
      <line style="stroke:#181818;stroke-width:0.5;" x1="8" x2="192" y1="163" y2="163" />
      <line style="stroke:#181818;stroke-width:0.5;" x1="8" x2="192" y1="171" y2="171" />
      <text fill="#000000" font-family="sans-serif" font-size="14" lengthAdjust="spacing" textLength="174" x="13" y="187.9951">displayGeoEntities(): void</text>
    </g> <!--MD5=[6eea6f4d2977f0a0a2af3849e7e9158e]
class IMapService-->
    <g id="elem_IMapService">
      <rect codeLine="5" fill="#F1F1F1" height="64.2969" id="IMapService" rx="2.5" ry="2.5" style="stroke:#181818;stroke-width:0.5;" width="385" x="228.5" y="131" />
      <ellipse cx="375.75" cy="147" fill="#B4A7E5" rx="11" ry="11" style="stroke:#181818;stroke-width:1.0;" />
      <path d="M371.6719,142.7656 L371.6719,140.6094 L379.0625,140.6094 L379.0625,142.7656 L376.5938,142.7656 L376.5938,150.8438 L379.0625,150.8438 L379.0625,153 L371.6719,153 L371.6719,150.8438 L374.1406,150.8438 L374.1406,142.7656 L371.6719,142.7656 Z " fill="#000000" />
      <text fill="#000000" font-family="sans-serif" font-size="14" font-style="italic" lengthAdjust="spacing" textLength="82" x="396.25" y="151.8467">IMapService</text>
      <line style="stroke:#181818;stroke-width:0.5;" x1="229.5" x2="612.5" y1="163" y2="163" />
      <line style="stroke:#181818;stroke-width:0.5;" x1="229.5" x2="612.5" y1="171" y2="171" />
      <text fill="#000000" font-family="sans-serif" font-size="14" lengthAdjust="spacing" textLength="373" x="234.5" y="187.9951">public addGeoEntities(geoEntities: GeoEntities): Layer</text>
    </g> <!--MD5=[6fd7d4093f46e1cb585cabddbe8cfec9]
class MapService-->
    <g id="elem_MapService">
      <rect codeLine="9" fill="#F1F1F1" height="64.2969" id="MapService" rx="2.5" ry="2.5" style="stroke:#181818;stroke-width:0.5;" width="340" x="251" y="7" />
      <ellipse cx="377.25" cy="23" fill="#ADD1B2" rx="11" ry="11" style="stroke:#181818;stroke-width:1.0;" />
      <path d="M380.2188,28.6406 Q379.6406,28.9375 379,29.0781 Q378.3594,29.2344 377.6563,29.2344 Q375.1563,29.2344 373.8281,27.5938 Q372.5156,25.9375 372.5156,22.8125 Q372.5156,19.6875 373.8281,18.0313 Q375.1563,16.375 377.6563,16.375 Q378.3594,16.375 379,16.5313 Q379.6563,16.6875 380.2188,16.9844 L380.2188,19.7031 Q379.5938,19.125 379,18.8594 Q378.4063,18.5781 377.7813,18.5781 Q376.4375,18.5781 375.75,19.6563 Q375.0625,20.7188 375.0625,22.8125 Q375.0625,24.9063 375.75,25.9844 Q376.4375,27.0469 377.7813,27.0469 Q378.4063,27.0469 379,26.7813 Q379.5938,26.5 380.2188,25.9219 L380.2188,28.6406 Z " fill="#000000" />
      <text fill="#000000" font-family="sans-serif" font-size="14" lengthAdjust="spacing" textLength="79" x="397.75" y="27.8467">MapService</text>
      <line style="stroke:#181818;stroke-width:0.5;" x1="252" x2="590" y1="39" y2="39" />
      <line style="stroke:#181818;stroke-width:0.5;" x1="252" x2="590" y1="47" y2="47" />
      <text fill="#000000" font-family="sans-serif" font-size="14" lengthAdjust="spacing" textLength="328" x="257" y="63.9951">addGeoEntities(geoEntities: GeoEntities): Layer</text>
    </g> <!--MD5=[d0aed86ad416440bba57cff23fc53ab6]
class OpenLayerImpl-->
    <g id="elem_OpenLayerImpl">
      <rect codeLine="12" fill="#F1F1F1" height="64.2969" id="OpenLayerImpl" rx="2.5" ry="2.5" style="stroke:#181818;stroke-width:0.5;" width="204" x="626" y="7" />
      <ellipse cx="672.75" cy="23" fill="#ADD1B2" rx="11" ry="11" style="stroke:#181818;stroke-width:1.0;" />
      <path d="M675.7188,28.6406 Q675.1406,28.9375 674.5,29.0781 Q673.8594,29.2344 673.1563,29.2344 Q670.6563,29.2344 669.3281,27.5938 Q668.0156,25.9375 668.0156,22.8125 Q668.0156,19.6875 669.3281,18.0313 Q670.6563,16.375 673.1563,16.375 Q673.8594,16.375 674.5,16.5313 Q675.1563,16.6875 675.7188,16.9844 L675.7188,19.7031 Q675.0938,19.125 674.5,18.8594 Q673.9063,18.5781 673.2813,18.5781 Q671.9375,18.5781 671.25,19.6563 Q670.5625,20.7188 670.5625,22.8125 Q670.5625,24.9063 671.25,25.9844 Q671.9375,27.0469 673.2813,27.0469 Q673.9063,27.0469 674.5,26.7813 Q675.0938,26.5 675.7188,25.9219 L675.7188,28.6406 Z " fill="#000000" />
      <text fill="#000000" font-family="sans-serif" font-size="14" lengthAdjust="spacing" textLength="102" x="693.25" y="27.8467">OpenLayerImpl</text>
      <line style="stroke:#181818;stroke-width:0.5;" x1="627" x2="829" y1="39" y2="39" />
      <line style="stroke:#181818;stroke-width:0.5;" x1="627" x2="829" y1="47" y2="47" />
      <text fill="#000000" font-family="sans-serif" font-size="14" lengthAdjust="spacing" textLength="192" x="632" y="63.9951">addLayer(source: OlSource)</text>
    </g> <!--MD5=[f2a452a074975774e1bf85e86e112a90]
link MapComponent to IMapService-->
    <g id="link_MapComponent_IMapService">
      <path codeLine="15" d="M193.1,163 C203.08,163 213.07,163 223.05,163 " fill="none" id="MapComponent-to-IMapService" style="stroke:#181818;stroke-width:1.0;" />
      <polygon fill="#181818" points="228.27,163,219.27,159,223.27,163,219.27,167,228.27,163" style="stroke:#181818;stroke-width:1.0;" />
    </g> <!--MD5=[bbe6effd91e28a401c9ac8ca2580b67c]
link MapService to IMapService-->
    <g id="link_MapService_IMapService">
      <path codeLine="16" d="M421,71.1 C421,83.15 421,97.26 421,110.72 " fill="none" id="MapService-to-IMapService" style="stroke:#181818;stroke-width:1.0;stroke-dasharray:7.0,7.0;" />
      <polygon fill="none" points="428,110.96,421,130.96,414,110.96,428,110.96" style="stroke:#181818;stroke-width:1.0;" />
    </g> <!--MD5=[577496a495caa6402c4daf9f870177b4]
link MapService to OpenLayerImpl-->
    <g id="link_MapService_OpenLayerImpl">
      <path codeLine="17" d="M591.29,39 C601.07,39 610.84,39 620.62,39 " fill="none" id="MapService-to-OpenLayerImpl" style="stroke:#181818;stroke-width:1.0;" />
      <polygon fill="#181818" points="625.73,39,616.73,35,620.73,39,616.73,43,625.73,39" style="stroke:#181818;stroke-width:1.0;" />
    </g> <!--MD5=[42a6c21d365610fb790d270d08432e6b]
@startuml
class MapComponent {
  displayGeoEntities(): void
}

interface IMapService {
  public addGeoEntities(geoEntities: GeoEntities): Layer
}

class MapService {
  addGeoEntities(geoEntities: GeoEntities): Layer
}
class OpenLayerImpl{
  addLayer(source: OlSource)
}
MapComponent -> IMapService
MapService ..|> IMapService
MapService -> OpenLayerImpl
@enduml

PlantUML version 1.2022.4(Sat Apr 09 13:29:17 UTC 2022)
(GPL source distribution)
Java Runtime: OpenJDK Runtime Environment
JVM: OpenJDK 64-Bit Server VM
Default Encoding: UTF-8
Language: en
Country: US
-->
  </g>
</svg>